<!DOCTYPE svg PUBLIC "-//W3C//DTD SVG 20010904//EN" "http://www.w3.org/TR/2001/REC-SVG-20010904/DTD/svg10.dtd">
<svg version="1.0" xmlns="http://www.w3.org/2000/svg" width="66px" height="66px" viewBox="0 0 660 660" preserveAspectRatio="xMidYMid meet">
<g id="layer1" fill="#00c100" stroke="none">
 <path d="M238 653 c7 -3 16 -2 19 1 4 3 -2 6 -13 5 -11 0 -14 -3 -6 -6z"/>
 <path d="M408 653 c7 -3 16 -2 19 1 4 3 -2 6 -13 5 -11 0 -14 -3 -6 -6z"/>
 <path d="M540 580 c0 -5 5 -10 10 -10 6 0 10 5 10 10 0 6 -4 10 -10 10 -5 0 -10 -4 -10 -10z"/>
 <path d="M573 520 c-10 -26 -16 -30 -32 -25 -23 7 -29 -9 -7 -22 16 -10 40 -106 37 -153 -1 -19 -7 -53 -12 -75 -14 -53 -93 -130 -149 -145 -46 -12 -128 -15 -157 -6 -13 4 -27 -2 -43 -19 -15 -16 -30 -23 -42 -19 -12 3 -18 0 -18 -10 0 -23 91 -46 180 -46 116 0 170 20 240 90 69 69 90 124 90 237 0 94 -15 152 -48 193 l-27 32 -12 -32z"/>
 <path d="M11 444 c0 -11 3 -14 6 -6 3 7 2 16 -1 19 -3 4 -6 -2 -5 -13z"/>
 <path d="M445 360 c-19 -19 -39 -30 -57 -30 -18 0 -28 -5 -28 -15 0 -21 120 -21 160 0 46 24 36 56 -20 70 -20 5 -32 -1 -55 -25z"/>
 <path d="M280 218 c0 -95 30 -137 74 -105 16 11 17 21 11 65 -7 54 -25 68 -44 35 -8 -14 -10 -9 -11 25 0 30 -4 42 -15 42 -12 0 -15 -14 -15 -62z"/>
 <path d="M11 214 c0 -11 3 -14 6 -6 3 7 2 16 -1 19 -3 4 -6 -2 -5 -13z"/>
 </g>
<g id="layer2" fill="#00b900" stroke="none">
 <path d="M196 644 c-35 -11 -66 -32 -106 -72 -70 -70 -90 -125 -90 -244 0 -112 27 -183 92 -245 38 -36 108 -69 108 -51 0 7 10 23 23 36 l22 24 -25 17 c-95 63 -130 122 -130 221 0 80 22 132 78 182 50 45 107 62 187 55 71 -5 106 -21 157 -72 l38 -37 20 23 c35 43 35 59 -2 94 -63 62 -111 79 -223 82 -69 2 -115 -2 -149 -13z"/>
 <path d="M651 414 c0 -11 3 -14 6 -6 3 7 2 16 -1 19 -3 4 -6 -2 -5 -13z"/>
 <path d="M296 371 c-15 -16 -16 -31 -10 -105 7 -85 15 -101 42 -74 9 9 12 9 12 0 0 -7 7 -12 15 -12 12 0 15 14 15 65 0 65 0 65 28 65 20 0 35 9 50 30 12 16 22 34 22 40 0 6 -31 10 -78 10 -65 0 -82 -3 -96 -19z"/>
 <path d="M500 375 c0 -8 5 -15 10 -15 6 0 10 7 10 15 0 8 -4 15 -10 15 -5 0 -10 -7 -10 -15z"/>
 <path d="M500 320 c0 -5 7 -10 15 -10 8 0 15 5 15 10 0 6 -7 10 -15 10 -8 0 -15 -4 -15 -10z"/>
 <path d="M651 244 c0 -11 3 -14 6 -6 3 7 2 16 -1 19 -3 4 -6 -2 -5 -13z"/>
 <path d="M280 140 c0 -5 7 -10 15 -10 8 0 15 5 15 10 0 6 -7 10 -15 10 -8 0 -15 -4 -15 -10z"/>
 <path d="M238 3 c7 -3 16 -2 19 1 4 3 -2 6 -13 5 -11 0 -14 -3 -6 -6z"/>
 <path d="M408 3 c7 -3 16 -2 19 1 4 3 -2 6 -13 5 -11 0 -14 -3 -6 -6z"/>
 </g>

</svg>