<!DOCTYPE svg PUBLIC "-//W3C//DTD SVG 20010904//EN" "http://www.w3.org/TR/2001/REC-SVG-20010904/DTD/svg10.dtd">
<svg version="1.0" xmlns="http://www.w3.org/2000/svg" width="79px" height="67px" viewBox="0 0 790 670" preserveAspectRatio="xMidYMid meet">
<g id="layer1" fill="#00c100" stroke="none">
 <path d="M680 547 c0 -5 5 -17 10 -27 8 -16 6 -22 -10 -32 -11 -7 -20 -17 -20 -23 0 -5 22 -34 49 -64 34 -39 53 -53 64 -48 26 10 20 54 -12 100 -41 58 -80 104 -81 94z"/>
 <path d="M480 450 c0 -5 7 -10 15 -10 8 0 15 5 15 10 0 6 -7 10 -15 10 -8 0 -15 -4 -15 -10z"/>
 <path d="M509 275 c-86 -107 -136 -161 -140 -153 -6 9 -10 7 -15 -5 -3 -10 -4 -21 0 -24 11 -12 -58 -78 -88 -84 -18 -4 5 -7 58 -8 137 -2 197 22 276 111 43 49 73 110 84 170 8 45 -13 158 -30 158 -6 0 -72 -74 -145 -165z"/>
 <path d="M1 414 c0 -11 3 -14 6 -6 3 7 2 16 -1 19 -3 4 -6 -2 -5 -13z"/>
 </g>
<g id="layer2" fill="#00ba00" stroke="none">
 <path d="M205 657 c-27 -8 -61 -32 -107 -77 -77 -76 -98 -128 -98 -245 0 -107 21 -164 85 -234 58 -61 99 -84 176 -95 l45 -7 170 210 169 211 9 -35 c5 -19 16 -35 23 -35 22 0 5 70 -26 104 -21 23 -22 26 -5 16 18 -11 25 -10 47 6 26 18 36 44 18 44 -5 0 -14 12 -20 28 -6 15 -27 45 -45 67 l-34 40 -29 -28 c-29 -27 -30 -27 -47 -8 -41 45 -227 66 -331 38z m335 -81 c0 -2 -8 -10 -17 -17 -16 -13 -17 -12 -4 4 13 16 21 21 21 13z m-190 -51 c0 -19 8 -28 34 -39 39 -16 56 -42 56 -83 0 -41 -19 -63 -81 -92 -61 -30 -79 -53 -63 -78 9 -14 25 -18 68 -18 66 1 77 -20 23 -45 -19 -9 -31 -22 -31 -32 1 -11 -5 -18 -17 -18 -13 0 -19 7 -19 24 0 18 -10 29 -37 43 -34 16 -38 22 -41 61 -4 52 8 69 68 95 79 34 97 62 63 99 -18 20 -67 24 -106 9 -21 -8 -26 -6 -30 9 -4 15 4 22 37 32 30 9 42 19 44 36 5 31 32 29 32 -3z m160 11 c0 -2 -8 -10 -17 -17 -16 -13 -17 -12 -4 4 13 16 21 21 21 13z m108 -28 c8 -10 5 -13 -13 -13 -18 0 -21 3 -13 13 6 6 12 12 13 12 1 0 7 -6 13 -12z m-48 -22 c0 -2 -8 -10 -17 -17 -16 -13 -17 -12 -4 4 13 16 21 21 21 13z m-43 -32 c-3 -3 -12 -4 -19 -1 -8 3 -5 6 6 6 11 1 17 -2 13 -5z"/>
 <path d="M575 109 c-4 -6 -5 -13 -2 -16 7 -7 27 6 27 18 0 12 -17 12 -25 -2z"/>
 </g>

</svg>