<!DOCTYPE svg PUBLIC "-//W3C//DTD SVG 20010904//EN" "http://www.w3.org/TR/2001/REC-SVG-20010904/DTD/svg10.dtd">
<svg version="1.0" xmlns="http://www.w3.org/2000/svg" width="59px" height="69px" viewBox="0 0 590 690" preserveAspectRatio="xMidYMid meet">
<g id="layer1" fill="#00c100" stroke="none">
 <path d="M518 529 c-7 -18 -154 -200 -174 -216 -11 -8 -13 -16 -5 -30 5 -10 15 -33 21 -51 15 -40 64 -82 95 -82 32 0 49 23 36 49 -18 32 -13 52 24 92 19 22 35 43 35 48 0 5 9 11 20 14 19 5 21 12 18 74 -3 61 -5 68 -24 71 -12 2 -26 13 -31 24 -7 17 -11 18 -15 7z"/>
 <path d="M256 200 c-31 -38 -61 -70 -66 -70 -20 0 -9 -19 13 -23 l22 -4 -22 -8 c-13 -4 -23 -11 -23 -16 0 -5 -4 -9 -10 -9 -5 0 -10 7 -10 15 0 8 -5 15 -11 15 -6 0 -9 -9 -6 -19 3 -12 -4 -28 -19 -42 -13 -12 -24 -27 -24 -32 0 -5 34 -8 79 -6 61 3 86 9 108 25 40 30 73 92 73 138 0 48 -20 106 -36 106 -6 0 -37 -31 -68 -70z"/>
 <path d="M1 114 c0 -11 3 -14 6 -6 3 7 2 16 -1 19 -3 4 -6 -2 -5 -13z"/>
 </g>
<g id="layer2" fill="#00b900" stroke="none">
 <path d="M117 683 c-4 -3 -7 -16 -7 -28 0 -12 -11 -37 -25 -56 -52 -73 -65 -106 -65 -172 0 -37 6 -71 13 -81 13 -17 15 -17 45 -2 47 24 53 19 8 -7 -60 -34 -79 -67 -84 -141 -5 -81 11 -129 52 -161 42 -32 56 -31 91 5 l29 30 -22 23 c-33 35 -28 62 16 84 47 23 52 47 15 67 -15 8 -22 15 -15 16 7 0 25 -12 39 -26 l27 -27 -27 -21 c-14 -12 -36 -29 -49 -38 -21 -15 -21 -18 -8 -32 25 -25 52 -9 118 74 62 77 63 79 47 104 -9 13 -35 34 -58 45 -23 12 -36 21 -29 21 18 0 53 -19 79 -42 11 -11 29 -18 38 -16 9 1 51 46 94 98 50 62 83 94 94 92 9 -2 17 2 17 8 0 15 -44 82 -69 104 -13 12 -21 31 -21 53 l0 33 -75 0 c-43 0 -75 -4 -75 -10 0 -5 -9 -10 -19 -10 -11 0 -23 5 -26 10 -7 11 -138 14 -148 3z m81 -320 c-10 -2 -28 -2 -40 0 -13 2 -5 4 17 4 22 1 32 -1 23 -4z"/>
 <path d="M330 241 c0 -5 5 -13 10 -16 6 -3 10 -2 10 4 0 5 -4 13 -10 16 -5 3 -10 2 -10 -4z"/>
 </g>

</svg>